<?xml version="1.0" encoding="UTF-8" standalone="no"?><!DOCTYPE svg PUBLIC "-//W3C//DTD SVG 1.1//EN" "http://www.w3.org/Graphics/SVG/1.1/DTD/svg11.dtd"><svg width="100%" height="100%" viewBox="0 0 2934 1334" version="1.1" xmlns="http://www.w3.org/2000/svg" xmlns:xlink="http://www.w3.org/1999/xlink" xml:space="preserve" xmlns:serif="http://www.serif.com/" style="fill-rule:evenodd;clip-rule:evenodd;stroke-linejoin:round;stroke-miterlimit:2;"><g id="LOGO"><path id="Dot" d="M2775.42,1313.09c-39.093,0 -72.172,-13.532 -99.236,-40.596c-27.065,-27.065 -40.597,-60.143 -40.597,-99.236c0,-39.093 13.532,-72.172 40.597,-99.236c27.064,-27.065 60.143,-40.597 99.236,-40.597c37.589,0 69.54,13.532 95.853,40.597c26.312,27.064 39.469,60.143 39.469,99.236c-0,39.093 -13.157,72.171 -39.469,99.236c-26.313,27.064 -58.264,40.596 -95.853,40.596Z" style="fill-rule:nonzero;stroke:#000;stroke-width:39.01px;"/><path id="DRD" d="M1918.74,1312.65l-391.2,0.436l-268.882,-488.039l-90.101,-0.142c-13.756,64.05 -36.314,123.641 -67.676,178.783c-55.864,98.222 -135.055,174.343 -237.574,228.365c-102.519,54.022 -221.306,81.033 -356.36,81.033l-484.356,0l-0,-1292.84l1374.19,0l4.319,0.012l-0.004,-0.012l517.642,4.295c136.283,0 255.376,27.011 357.281,81.033c101.905,54.022 180.79,129.837 236.653,227.445c55.864,97.607 83.796,210.255 83.796,337.944c-0,126.46 -27.932,238.801 -83.796,337.023c-55.863,98.222 -135.055,174.343 -237.573,228.365c-102.519,54.022 -221.306,76.302 -356.361,76.302Zm-735.59,-710.443l195.216,-0c57.705,-0 100.984,-14.12 129.837,-42.358c28.852,-28.239 43.279,-68.142 43.279,-119.708c-0,-49.111 -14.427,-87.786 -43.279,-116.025c-28.853,-28.238 -72.132,-42.358 -129.837,-42.358l-195.216,0l0,320.449Zm543.608,442.794l171.724,-0.185c119.094,0 211.79,-32.536 278.09,-97.608c66.3,-65.072 99.449,-157.155 99.449,-276.248c0,-119.094 -33.149,-211.791 -99.449,-278.09c-66.3,-66.3 -158.996,-99.45 -278.09,-99.45l-47.399,-0.58c13.897,42.043 20.847,86.848 20.847,134.409c0,85.944 -24.248,162.68 -72.745,230.207c-48.497,67.528 -120.015,115.411 -214.553,143.65l142.126,243.895Zm-1240.07,-4.48c119.094,0 211.791,-32.536 278.091,-97.608c66.299,-65.072 99.449,-157.155 99.449,-276.248c0,-119.094 -33.15,-211.791 -99.449,-278.091c-66.3,-66.299 -158.997,-99.449 -278.091,-99.449l-149.174,0l0,751.396l149.174,0Z" style="stroke:#000;stroke-width:37.5px;stroke-linecap:round;stroke-miterlimit:1.5;"/></g></svg>