<svg width="655" height="222" viewBox="0 0 655 222" fill="none" xmlns="http://www.w3.org/2000/svg">
<path d="M63.4539 221.4C53.1872 221.4 43.9872 219.733 35.8539 216.4C27.7206 213.067 21.1872 208.133 16.2539 201.6C11.4539 195.067 8.92057 187.2 8.65391 178H45.0539C45.5872 183.2 47.3872 187.2 50.4539 190C53.5206 192.667 57.5206 194 62.4539 194C67.5206 194 71.5206 192.867 74.4539 190.6C77.3872 188.2 78.8539 184.933 78.8539 180.8C78.8539 177.333 77.6539 174.467 75.2539 172.2C72.9872 169.933 70.1206 168.067 66.6539 166.6C63.3206 165.133 58.5206 163.467 52.2539 161.6C43.1872 158.8 35.7872 156 30.0539 153.2C24.3206 150.4 19.3872 146.267 15.2539 140.8C11.1206 135.333 9.05391 128.2 9.05391 119.4C9.05391 106.333 13.7872 96.1333 23.2539 88.8C32.7206 81.3333 45.0539 77.6 60.2539 77.6C75.7206 77.6 88.1872 81.3333 97.6539 88.8C107.121 96.1333 112.187 106.4 112.854 119.6H75.8539C75.5872 115.067 73.9206 111.533 70.8539 109C67.7872 106.333 63.8539 105 59.0539 105C54.9206 105 51.5872 106.133 49.0539 108.4C46.5206 110.533 45.2539 113.667 45.2539 117.8C45.2539 122.333 47.3872 125.867 51.6539 128.4C55.9206 130.933 62.5872 133.667 71.6539 136.6C80.7206 139.667 88.0539 142.6 93.6539 145.4C99.3872 148.2 104.321 152.267 108.454 157.6C112.587 162.933 114.654 169.8 114.654 178.2C114.654 186.2 112.587 193.467 108.454 200C104.454 206.533 98.5872 211.733 90.8539 215.6C83.1206 219.467 73.9872 221.4 63.4539 221.4ZM294.701 79.6V220H260.501V135.8L229.101 220H201.501L169.901 135.6V220H135.701V79.6H176.101L215.501 176.8L254.501 79.6H294.701ZM385.695 221.4C372.495 221.4 360.361 218.333 349.295 212.2C338.361 206.067 329.628 197.533 323.095 186.6C316.695 175.533 313.495 163.133 313.495 149.4C313.495 135.667 316.695 123.333 323.095 112.4C329.628 101.467 338.361 92.9333 349.295 86.8C360.361 80.6667 372.495 77.6 385.695 77.6C398.895 77.6 410.961 80.6667 421.895 86.8C432.961 92.9333 441.628 101.467 447.895 112.4C454.295 123.333 457.495 135.667 457.495 149.4C457.495 163.133 454.295 175.533 447.895 186.6C441.495 197.533 432.828 206.067 421.895 212.2C410.961 218.333 398.895 221.4 385.695 221.4ZM385.695 190.2C396.895 190.2 405.828 186.467 412.495 179C419.295 171.533 422.695 161.667 422.695 149.4C422.695 137 419.295 127.133 412.495 119.8C405.828 112.333 396.895 108.6 385.695 108.6C374.361 108.6 365.295 112.267 358.495 119.6C351.828 126.933 348.495 136.867 348.495 149.4C348.495 161.8 351.828 171.733 358.495 179.2C365.295 186.533 374.361 190.2 385.695 190.2ZM510.721 193.6H555.521V220H476.521V79.6H510.721V193.6ZM606.034 193.6H650.834V220H571.834V79.6H606.034V193.6Z" fill="url(#paint0_linear_10_7)"/>
<circle cx="371" cy="145" r="5" fill="url(#paint1_linear_10_7)"/>
<circle cx="401" cy="145" r="5" fill="url(#paint2_linear_10_7)"/>
<path d="M374 162C374 163.576 374.31 165.136 374.913 166.592C375.517 168.048 376.4 169.371 377.515 170.485C378.629 171.6 379.952 172.483 381.408 173.087C382.864 173.69 384.424 174 386 174C387.576 174 389.136 173.69 390.592 173.087C392.048 172.483 393.371 171.6 394.485 170.485C395.6 169.371 396.483 168.048 397.087 166.592C397.69 165.136 398 163.576 398 162H386L374 162Z" fill="url(#paint3_linear_10_7)"/>
<defs>
<linearGradient id="paint0_linear_10_7" x1="655" y1="-4.36904e-05" x2="-7.49999" y2="222" gradientUnits="userSpaceOnUse">
<stop stop-color="#6BFFD2"/>
<stop offset="1" stop-color="#6FF68E"/>
</linearGradient>
<linearGradient id="paint1_linear_10_7" x1="376" y1="140" x2="364.893" y2="141.261" gradientUnits="userSpaceOnUse">
<stop stop-color="#6BFFD2"/>
<stop offset="1" stop-color="#6FF68E"/>
</linearGradient>
<linearGradient id="paint2_linear_10_7" x1="406" y1="140" x2="394.893" y2="141.261" gradientUnits="userSpaceOnUse">
<stop stop-color="#6BFFD2"/>
<stop offset="1" stop-color="#6FF68E"/>
</linearGradient>
<linearGradient id="paint3_linear_10_7" x1="398" y1="150" x2="371.343" y2="153.028" gradientUnits="userSpaceOnUse">
<stop stop-color="#6BFFD2"/>
<stop offset="1" stop-color="#6FF68E"/>
</linearGradient>
</defs>
</svg>
