<?xml version="1.0" standalone="no"?>
<!DOCTYPE svg PUBLIC "-//W3C//DTD SVG 20010904//EN"
 "http://www.w3.org/TR/2001/REC-SVG-20010904/DTD/svg10.dtd">
<svg version="1.0" xmlns="http://www.w3.org/2000/svg"
 width="700.000000pt" height="700.000000pt" viewBox="0 0 700.000000 700.000000"
 preserveAspectRatio="xMidYMid meet">
<metadata>
Created by potrace 1.14, written by Peter Selinger 2001-2017
</metadata>
<g transform="translate(0.000000,700.000000) scale(0.100000,-0.100000)"
fill="#000000" stroke="none">
<path d="M3458 6575 c-2 -2 -61 -5 -133 -9 -148 -7 -235 -16 -315 -31 -9 -2
-35 -6 -56 -9 -131 -21 -422 -100 -519 -140 -16 -7 -68 -28 -115 -46 -127 -50
-424 -203 -466 -241 -11 -11 -23 -19 -27 -19 -4 0 -25 -12 -46 -27 -21 -16
-49 -35 -61 -43 -269 -184 -577 -500 -767 -785 -232 -348 -403 -759 -467
-1120 -3 -16 -10 -55 -16 -85 -18 -103 -22 -138 -36 -290 -5 -63 -5 -384 1
-445 9 -99 23 -220 30 -255 2 -14 7 -41 10 -60 12 -71 47 -218 76 -319 29
-102 108 -323 128 -358 6 -10 27 -54 46 -98 100 -221 289 -509 462 -704 116
-130 265 -272 414 -396 298 -248 832 -509 1188 -581 12 -3 51 -11 85 -19 70
-16 225 -41 306 -50 30 -3 78 -8 105 -10 56 -6 403 -7 450 -1 17 2 61 6 98 10
37 4 76 9 85 11 9 1 40 6 67 9 28 4 57 9 65 11 8 2 31 7 50 10 106 18 412 104
495 140 17 7 71 30 120 50 708 295 1311 898 1613 1615 96 228 181 524 208 725
3 28 8 58 10 68 3 16 10 83 20 187 4 52 4 366 -1 438 -4 65 -13 143 -21 197
-5 32 -8 53 -19 125 -4 25 -22 110 -41 188 -180 742 -645 1402 -1295 1840
-208 139 -453 261 -702 348 -101 35 -300 89 -367 100 -19 3 -38 8 -41 10 -6 3
-120 22 -184 30 -22 3 -53 7 -70 9 -16 3 -88 7 -160 11 -71 3 -147 7 -167 8
-21 2 -39 2 -40 1z m-839 -2436 c122 -40 204 -146 225 -293 8 -57 -19 -143
-70 -220 -20 -32 -121 -100 -167 -113 -64 -19 -164 -11 -227 18 -113 53 -180
152 -188 279 -5 103 22 175 93 246 91 91 214 122 334 83z m1986 -7 c72 -25
155 -110 184 -187 42 -109 16 -255 -58 -333 -121 -126 -290 -147 -433 -52
-104 69 -161 214 -133 335 29 126 117 218 237 249 63 16 135 12 203 -12z m143
-1301 c35 -15 62 -55 62 -93 0 -61 -69 -224 -146 -348 -210 -336 -559 -564
-959 -626 -81 -12 -321 -12 -407 2 -330 50 -628 212 -835 454 -82 96 -76 88
-119 156 -91 142 -161 319 -151 381 7 38 39 72 79 83 11 3 565 5 1231 5 1002
0 1218 -3 1245 -14z"/>
</g>
</svg>
